<svg id="visual" viewBox="0 0 900 600" width="900" height="600" xmlns="http://www.w3.org/2000/svg" xmlns:xlink="http://www.w3.org/1999/xlink" version="1.1"><rect x="0" y="0" width="900" height="600" fill="#001220"></rect><defs><linearGradient id="grad1_0" x1="33.3%" y1="0%" x2="100%" y2="100%"><stop offset="20%" stop-color="#001220" stop-opacity="1"></stop><stop offset="80%" stop-color="#001220" stop-opacity="1"></stop></linearGradient></defs><defs><linearGradient id="grad2_0" x1="0%" y1="0%" x2="66.7%" y2="100%"><stop offset="20%" stop-color="#001220" stop-opacity="1"></stop><stop offset="80%" stop-color="#001220" stop-opacity="1"></stop></linearGradient></defs><g transform="translate(900, 0)"><path d="M0 405.6C-36.6 384 -73.2 362.3 -114.6 352.8C-156.1 343.4 -202.5 346.2 -238.4 328.2C-274.3 310.1 -299.8 271.2 -322 233.9C-344.2 196.7 -363.2 161.1 -376.6 122.4C-390 83.7 -397.8 41.8 -405.6 0L0 0Z" fill="#FBAE3C"></path></g><g transform="translate(0, 600)"><path d="M0 -405.6C48.3 -410.4 96.6 -415.1 125.3 -385.8C154.1 -356.4 163.2 -293 191 -262.9C218.9 -232.8 265.6 -236 300.1 -218.1C334.7 -200.1 357.2 -161 372.8 -121.1C388.4 -81.3 397 -40.6 405.6 0L0 0Z" fill="#FBAE3C"></path></g></svg>