<svg id="visual" viewBox="0 0 900 600" width="900" height="600" xmlns="http://www.w3.org/2000/svg" xmlns:xlink="http://www.w3.org/1999/xlink" version="1.1"><rect x="0" y="0" width="900" height="600" fill="#001220"></rect><defs><linearGradient id="grad1_0" x1="33.3%" y1="0%" x2="100%" y2="100%"><stop offset="20%" stop-color="#001220" stop-opacity="1"></stop><stop offset="80%" stop-color="#001220" stop-opacity="1"></stop></linearGradient></defs><defs><linearGradient id="grad2_0" x1="0%" y1="0%" x2="66.7%" y2="100%"><stop offset="20%" stop-color="#001220" stop-opacity="1"></stop><stop offset="80%" stop-color="#001220" stop-opacity="1"></stop></linearGradient></defs><g transform="translate(900, 0)"><path d="M0 405.6C-35 379.2 -70 352.8 -111.9 344.3C-153.8 335.7 -202.5 345 -238.4 328.2C-274.3 311.3 -297.3 268.3 -315.5 229.2C-333.7 190.2 -347.2 155 -361.4 117.4C-375.6 79.9 -390.6 39.9 -405.6 0L0 0Z" fill="#FBAE3C"></path></g><g transform="translate(0, 600)"><path d="M0 -405.6C40 -396.4 80 -387.1 122.7 -377.6C165.4 -368 210.7 -358.1 238.4 -328.2C266.1 -298.2 276.2 -248.2 287.2 -208.7C298.2 -169.2 310.1 -140.2 330 -107.2C349.9 -74.2 377.8 -37.1 405.6 0L0 0Z" fill="#FBAE3C"></path></g></svg>