<svg id="visual" viewBox="0 0 900 600" width="900" height="600" xmlns="http://www.w3.org/2000/svg" xmlns:xlink="http://www.w3.org/1999/xlink" version="1.1"><rect x="0" y="0" width="900" height="600" fill="#001220"></rect><defs><linearGradient id="grad1_0" x1="33.3%" y1="0%" x2="100%" y2="100%"><stop offset="20%" stop-color="#001220" stop-opacity="1"></stop><stop offset="80%" stop-color="#001220" stop-opacity="1"></stop></linearGradient></defs><defs><linearGradient id="grad2_0" x1="0%" y1="0%" x2="66.7%" y2="100%"><stop offset="20%" stop-color="#001220" stop-opacity="1"></stop><stop offset="80%" stop-color="#001220" stop-opacity="1"></stop></linearGradient></defs><g transform="translate(900, 0)"><path d="M0 405.6C-33.7 376.3 -67.4 347 -110.3 339.5C-153.2 332.1 -205.3 346.6 -238.4 328.2C-271.6 309.7 -285.8 258.4 -299.3 217.5C-312.9 176.6 -325.7 146.1 -343.3 111.6C-360.9 77 -383.3 38.5 -405.6 0L0 0Z" fill="#FBAE3C"></path></g><g transform="translate(0, 600)"><path d="M0 -405.6C32.9 -367.1 65.8 -328.6 100.7 -310C135.7 -291.5 172.7 -292.9 202.8 -279.1C232.8 -265.3 255.9 -236.2 288.8 -209.8C321.8 -183.5 364.7 -159.9 385.8 -125.3C406.9 -90.8 406.3 -45.4 405.6 0L0 0Z" fill="#FBAE3C"></path></g></svg>