<svg id="visual" viewBox="0 0 900 600" width="900" height="600" xmlns="http://www.w3.org/2000/svg" xmlns:xlink="http://www.w3.org/1999/xlink" version="1.1"><rect x="0" y="0" width="900" height="600" fill="#001220"></rect><defs><linearGradient id="grad1_0" x1="33.3%" y1="0%" x2="100%" y2="100%"><stop offset="20%" stop-color="#001220" stop-opacity="1"></stop><stop offset="80%" stop-color="#001220" stop-opacity="1"></stop></linearGradient></defs><defs><linearGradient id="grad2_0" x1="0%" y1="0%" x2="66.7%" y2="100%"><stop offset="20%" stop-color="#001220" stop-opacity="1"></stop><stop offset="80%" stop-color="#001220" stop-opacity="1"></stop></linearGradient></defs><g transform="translate(900, 0)"><path d="M0 405.6C-37.4 388 -74.7 370.4 -117.4 361.4C-160.2 352.4 -208.3 352 -238.4 328.2C-268.6 304.3 -280.8 257.1 -303.4 220.4C-325.9 183.8 -358.8 157.7 -377.6 122.7C-396.3 87.7 -401 43.9 -405.6 0L0 0Z" fill="#FBAE3C"></path></g><g transform="translate(0, 600)"><path d="M0 -405.6C43.1 -396.8 86.2 -388 119.6 -368.1C153 -348.1 176.6 -317.2 216.3 -297.7C256 -278.3 311.7 -270.4 328.2 -238.4C344.6 -206.4 321.8 -150.4 328.1 -106.6C334.5 -62.9 370.1 -31.4 405.6 0L0 0Z" fill="#FBAE3C"></path></g></svg>