<svg id="visual" viewBox="0 0 900 600" width="900" height="600" xmlns="http://www.w3.org/2000/svg" xmlns:xlink="http://www.w3.org/1999/xlink" version="1.1"><rect x="0" y="0" width="900" height="600" fill="#001220"></rect><path d="M0 377L21.5 367.5C43 358 86 339 128.8 332C171.7 325 214.3 330 257.2 335.2C300 340.3 343 345.7 385.8 352.3C428.7 359 471.3 367 514.2 364.8C557 362.7 600 350.3 642.8 348.7C685.7 347 728.3 356 771.2 354.5C814 353 857 341 878.5 335L900 329L900 601L878.5 601C857 601 814 601 771.2 601C728.3 601 685.7 601 642.8 601C600 601 557 601 514.2 601C471.3 601 428.7 601 385.8 601C343 601 300 601 257.2 601C214.3 601 171.7 601 128.8 601C86 601 43 601 21.5 601L0 601Z" fill="#fa7268"></path><path d="M0 480L21.5 479.8C43 479.7 86 479.3 128.8 471.3C171.7 463.3 214.3 447.7 257.2 446.8C300 446 343 460 385.8 468.3C428.7 476.7 471.3 479.3 514.2 476.3C557 473.3 600 464.7 642.8 460.8C685.7 457 728.3 458 771.2 456.3C814 454.7 857 450.3 878.5 448.2L900 446L900 601L878.5 601C857 601 814 601 771.2 601C728.3 601 685.7 601 642.8 601C600 601 557 601 514.2 601C471.3 601 428.7 601 385.8 601C343 601 300 601 257.2 601C214.3 601 171.7 601 128.8 601C86 601 43 601 21.5 601L0 601Z" fill="#c62368"></path></svg>