<svg id="visual" viewBox="0 0 900 600" width="900" height="600" xmlns="http://www.w3.org/2000/svg" xmlns:xlink="http://www.w3.org/1999/xlink" version="1.1"><rect x="0" y="0" width="900" height="600" fill="#001220"></rect><path d="M0 374L21.5 376C43 378 86 382 128.8 380.8C171.7 379.7 214.3 373.3 257.2 366.7C300 360 343 353 385.8 348.7C428.7 344.3 471.3 342.7 514.2 349.2C557 355.7 600 370.3 642.8 377.5C685.7 384.7 728.3 384.3 771.2 374.7C814 365 857 346 878.5 336.5L900 327L900 601L878.5 601C857 601 814 601 771.2 601C728.3 601 685.7 601 642.8 601C600 601 557 601 514.2 601C471.3 601 428.7 601 385.8 601C343 601 300 601 257.2 601C214.3 601 171.7 601 128.8 601C86 601 43 601 21.5 601L0 601Z" fill="#fa7268"></path><path d="M0 433L21.5 439.2C43 445.3 86 457.7 128.8 463.3C171.7 469 214.3 468 257.2 468C300 468 343 469 385.8 467.2C428.7 465.3 471.3 460.7 514.2 455.2C557 449.7 600 443.3 642.8 445.2C685.7 447 728.3 457 771.2 458.8C814 460.7 857 454.3 878.5 451.2L900 448L900 601L878.5 601C857 601 814 601 771.2 601C728.3 601 685.7 601 642.8 601C600 601 557 601 514.2 601C471.3 601 428.7 601 385.8 601C343 601 300 601 257.2 601C214.3 601 171.7 601 128.8 601C86 601 43 601 21.5 601L0 601Z" fill="#c62368"></path></svg>