<svg id="visual" viewBox="0 0 900 600" width="900" height="600" xmlns="http://www.w3.org/2000/svg" xmlns:xlink="http://www.w3.org/1999/xlink" version="1.1"><rect x="0" y="0" width="900" height="600" fill="#001220"></rect><path d="M0 355L21.5 354.5C43 354 86 353 128.8 358C171.7 363 214.3 374 257.2 375.3C300 376.7 343 368.3 385.8 366C428.7 363.7 471.3 367.3 514.2 363.5C557 359.7 600 348.3 642.8 340.2C685.7 332 728.3 327 771.2 331.5C814 336 857 350 878.5 357L900 364L900 601L878.5 601C857 601 814 601 771.2 601C728.3 601 685.7 601 642.8 601C600 601 557 601 514.2 601C471.3 601 428.7 601 385.8 601C343 601 300 601 257.2 601C214.3 601 171.7 601 128.8 601C86 601 43 601 21.5 601L0 601Z" fill="#fa7268"></path><path d="M0 432L21.5 433.8C43 435.7 86 439.3 128.8 444.3C171.7 449.3 214.3 455.7 257.2 453.8C300 452 343 442 385.8 441.2C428.7 440.3 471.3 448.7 514.2 452.3C557 456 600 455 642.8 457.5C685.7 460 728.3 466 771.2 468.8C814 471.7 857 471.3 878.5 471.2L900 471L900 601L878.5 601C857 601 814 601 771.2 601C728.3 601 685.7 601 642.8 601C600 601 557 601 514.2 601C471.3 601 428.7 601 385.8 601C343 601 300 601 257.2 601C214.3 601 171.7 601 128.8 601C86 601 43 601 21.5 601L0 601Z" fill="#c62368"></path></svg>