<svg id="visual" viewBox="0 0 900 600" width="900" height="600" xmlns="http://www.w3.org/2000/svg" xmlns:xlink="http://www.w3.org/1999/xlink" version="1.1"><rect x="0" y="0" width="900" height="600" fill="#001220"></rect><path d="M0 346L21.5 342C43 338 86 330 128.8 333.7C171.7 337.3 214.3 352.7 257.2 363.7C300 374.7 343 381.3 385.8 378C428.7 374.7 471.3 361.3 514.2 354C557 346.7 600 345.3 642.8 349C685.7 352.7 728.3 361.3 771.2 367.5C814 373.7 857 377.3 878.5 379.2L900 381L900 601L878.5 601C857 601 814 601 771.2 601C728.3 601 685.7 601 642.8 601C600 601 557 601 514.2 601C471.3 601 428.7 601 385.8 601C343 601 300 601 257.2 601C214.3 601 171.7 601 128.8 601C86 601 43 601 21.5 601L0 601Z" fill="#fa7268"></path><path d="M0 481L21.5 480.3C43 479.7 86 478.3 128.8 470.2C171.7 462 214.3 447 257.2 440.7C300 434.3 343 436.7 385.8 443.7C428.7 450.7 471.3 462.3 514.2 462.3C557 462.3 600 450.7 642.8 451.5C685.7 452.3 728.3 465.7 771.2 464.7C814 463.7 857 448.3 878.5 440.7L900 433L900 601L878.5 601C857 601 814 601 771.2 601C728.3 601 685.7 601 642.8 601C600 601 557 601 514.2 601C471.3 601 428.7 601 385.8 601C343 601 300 601 257.2 601C214.3 601 171.7 601 128.8 601C86 601 43 601 21.5 601L0 601Z" fill="#c62368"></path></svg>