<svg id="visual" viewBox="0 0 900 600" width="900" height="600" xmlns="http://www.w3.org/2000/svg" xmlns:xlink="http://www.w3.org/1999/xlink" version="1.1"><rect x="0" y="0" width="900" height="600" fill="#001220"></rect><path d="M0 321L21.5 324.3C43 327.7 86 334.3 128.8 336.2C171.7 338 214.3 335 257.2 339.5C300 344 343 356 385.8 355C428.7 354 471.3 340 514.2 335.5C557 331 600 336 642.8 342.5C685.7 349 728.3 357 771.2 354.3C814 351.7 857 338.3 878.5 331.7L900 325L900 601L878.5 601C857 601 814 601 771.2 601C728.3 601 685.7 601 642.8 601C600 601 557 601 514.2 601C471.3 601 428.7 601 385.8 601C343 601 300 601 257.2 601C214.3 601 171.7 601 128.8 601C86 601 43 601 21.5 601L0 601Z" fill="#fa7268"></path><path d="M0 477L21.5 475.8C43 474.7 86 472.3 128.8 466.5C171.7 460.7 214.3 451.3 257.2 448.7C300 446 343 450 385.8 450.2C428.7 450.3 471.3 446.7 514.2 444.2C557 441.7 600 440.3 642.8 444.2C685.7 448 728.3 457 771.2 456.8C814 456.7 857 447.3 878.5 442.7L900 438L900 601L878.5 601C857 601 814 601 771.2 601C728.3 601 685.7 601 642.8 601C600 601 557 601 514.2 601C471.3 601 428.7 601 385.8 601C343 601 300 601 257.2 601C214.3 601 171.7 601 128.8 601C86 601 43 601 21.5 601L0 601Z" fill="#c62368"></path></svg>