<svg id="visual" viewBox="0 0 900 600" width="900" height="600" xmlns="http://www.w3.org/2000/svg" xmlns:xlink="http://www.w3.org/1999/xlink" version="1.1"><rect x="0" y="0" width="900" height="600" fill="#001220"></rect><path d="M0 354L15 349.7C30 345.3 60 336.7 90 329C120 321.3 150 314.7 180 318.8C210 323 240 338 270 345.5C300 353 330 353 360 345.3C390 337.7 420 322.3 450 320C480 317.7 510 328.3 540 335.3C570 342.3 600 345.7 630 341.3C660 337 690 325 720 325.8C750 326.7 780 340.3 810 343.3C840 346.3 870 338.7 885 334.8L900 331L900 601L885 601C870 601 840 601 810 601C780 601 750 601 720 601C690 601 660 601 630 601C600 601 570 601 540 601C510 601 480 601 450 601C420 601 390 601 360 601C330 601 300 601 270 601C240 601 210 601 180 601C150 601 120 601 90 601C60 601 30 601 15 601L0 601Z" fill="#8a4562"></path><path d="M0 350L15 347.3C30 344.7 60 339.3 90 336.2C120 333 150 332 180 333.5C210 335 240 339 270 340.3C300 341.7 330 340.3 360 342C390 343.7 420 348.3 450 352.7C480 357 510 361 540 362.7C570 364.3 600 363.7 630 363.7C660 363.7 690 364.3 720 358.7C750 353 780 341 810 340.7C840 340.3 870 351.7 885 357.3L900 363L900 601L885 601C870 601 840 601 810 601C780 601 750 601 720 601C690 601 660 601 630 601C600 601 570 601 540 601C510 601 480 601 450 601C420 601 390 601 360 601C330 601 300 601 270 601C240 601 210 601 180 601C150 601 120 601 90 601C60 601 30 601 15 601L0 601Z" fill="#7f4162"></path><path d="M0 357L15 359.5C30 362 60 367 90 367.5C120 368 150 364 180 365.5C210 367 240 374 270 378.3C300 382.7 330 384.3 360 380.8C390 377.3 420 368.7 450 362.3C480 356 510 352 540 350.5C570 349 600 350 630 351C660 352 690 353 720 359C750 365 780 376 810 376.2C840 376.3 870 365.7 885 360.3L900 355L900 601L885 601C870 601 840 601 810 601C780 601 750 601 720 601C690 601 660 601 630 601C600 601 570 601 540 601C510 601 480 601 450 601C420 601 390 601 360 601C330 601 300 601 270 601C240 601 210 601 180 601C150 601 120 601 90 601C60 601 30 601 15 601L0 601Z" fill="#733e61"></path><path d="M0 388L15 386.2C30 384.3 60 380.7 90 382.2C120 383.7 150 390.3 180 394.8C210 399.3 240 401.7 270 404.2C300 406.7 330 409.3 360 408.2C390 407 420 402 450 400.3C480 398.7 510 400.3 540 401.2C570 402 600 402 630 400.8C660 399.7 690 397.3 720 398.3C750 399.3 780 403.7 810 405.5C840 407.3 870 406.7 885 406.3L900 406L900 601L885 601C870 601 840 601 810 601C780 601 750 601 720 601C690 601 660 601 630 601C600 601 570 601 540 601C510 601 480 601 450 601C420 601 390 601 360 601C330 601 300 601 270 601C240 601 210 601 180 601C150 601 120 601 90 601C60 601 30 601 15 601L0 601Z" fill="#673b60"></path><path d="M0 412L15 412.3C30 412.7 60 413.3 90 414C120 414.7 150 415.3 180 412.7C210 410 240 404 270 403.5C300 403 330 408 360 408C390 408 420 403 450 405.7C480 408.3 510 418.7 540 418.2C570 417.7 600 406.3 630 403.2C660 400 690 405 720 410C750 415 780 420 810 419.2C840 418.3 870 411.7 885 408.3L900 405L900 601L885 601C870 601 840 601 810 601C780 601 750 601 720 601C690 601 660 601 630 601C600 601 570 601 540 601C510 601 480 601 450 601C420 601 390 601 360 601C330 601 300 601 270 601C240 601 210 601 180 601C150 601 120 601 90 601C60 601 30 601 15 601L0 601Z" fill="#5b375e"></path><path d="M0 432L15 430.5C30 429 60 426 90 427.3C120 428.7 150 434.3 180 437.8C210 441.3 240 442.7 270 440.5C300 438.3 330 432.7 360 433.5C390 434.3 420 441.7 450 441.3C480 441 510 433 540 428C570 423 600 421 630 421C660 421 690 423 720 427.7C750 432.3 780 439.7 810 443.5C840 447.3 870 447.7 885 447.8L900 448L900 601L885 601C870 601 840 601 810 601C780 601 750 601 720 601C690 601 660 601 630 601C600 601 570 601 540 601C510 601 480 601 450 601C420 601 390 601 360 601C330 601 300 601 270 601C240 601 210 601 180 601C150 601 120 601 90 601C60 601 30 601 15 601L0 601Z" fill="#4f355b"></path><path d="M0 465L15 464.3C30 463.7 60 462.3 90 459C120 455.7 150 450.3 180 448.2C210 446 240 447 270 447.8C300 448.7 330 449.3 360 448.3C390 447.3 420 444.7 450 447.5C480 450.3 510 458.7 540 461.2C570 463.7 600 460.3 630 456.8C660 453.3 690 449.7 720 449.7C750 449.7 780 453.3 810 452.8C840 452.3 870 447.7 885 445.3L900 443L900 601L885 601C870 601 840 601 810 601C780 601 750 601 720 601C690 601 660 601 630 601C600 601 570 601 540 601C510 601 480 601 450 601C420 601 390 601 360 601C330 601 300 601 270 601C240 601 210 601 180 601C150 601 120 601 90 601C60 601 30 601 15 601L0 601Z" fill="#433157"></path><path d="M0 486L15 483.8C30 481.7 60 477.3 90 477.3C120 477.3 150 481.7 180 481.2C210 480.7 240 475.3 270 474C300 472.7 330 475.3 360 477.7C390 480 420 482 450 480.2C480 478.3 510 472.7 540 472.3C570 472 600 477 630 477.2C660 477.3 690 472.7 720 470.3C750 468 780 468 810 468.8C840 469.7 870 471.3 885 472.2L900 473L900 601L885 601C870 601 840 601 810 601C780 601 750 601 720 601C690 601 660 601 630 601C600 601 570 601 540 601C510 601 480 601 450 601C420 601 390 601 360 601C330 601 300 601 270 601C240 601 210 601 180 601C150 601 120 601 90 601C60 601 30 601 15 601L0 601Z" fill="#372e53"></path><path d="M0 504L15 501.5C30 499 60 494 90 493.5C120 493 150 497 180 499.3C210 501.7 240 502.3 270 500.3C300 498.3 330 493.7 360 492.7C390 491.7 420 494.3 450 495.8C480 497.3 510 497.7 540 497.3C570 497 600 496 630 494C660 492 690 489 720 490.3C750 491.7 780 497.3 810 499C840 500.7 870 498.3 885 497.2L900 496L900 601L885 601C870 601 840 601 810 601C780 601 750 601 720 601C690 601 660 601 630 601C600 601 570 601 540 601C510 601 480 601 450 601C420 601 390 601 360 601C330 601 300 601 270 601C240 601 210 601 180 601C150 601 120 601 90 601C60 601 30 601 15 601L0 601Z" fill="#2a2b4e"></path><path d="M0 523L15 522.8C30 522.7 60 522.3 90 520.5C120 518.7 150 515.3 180 514.5C210 513.7 240 515.3 270 516.5C300 517.7 330 518.3 360 517.5C390 516.7 420 514.3 450 512.7C480 511 510 510 540 511C570 512 600 515 630 515C660 515 690 512 720 512C750 512 780 515 810 517.3C840 519.7 870 521.3 885 522.2L900 523L900 601L885 601C870 601 840 601 810 601C780 601 750 601 720 601C690 601 660 601 630 601C600 601 570 601 540 601C510 601 480 601 450 601C420 601 390 601 360 601C330 601 300 601 270 601C240 601 210 601 180 601C150 601 120 601 90 601C60 601 30 601 15 601L0 601Z" fill="#1e2748"></path><path d="M0 541L15 541.2C30 541.3 60 541.7 90 540C120 538.3 150 534.7 180 533.8C210 533 240 535 270 535.7C300 536.3 330 535.7 360 536C390 536.3 420 537.7 450 537.2C480 536.7 510 534.3 540 534.5C570 534.7 600 537.3 630 537.7C660 538 690 536 720 534.5C750 533 780 532 810 532.2C840 532.3 870 533.7 885 534.3L900 535L900 601L885 601C870 601 840 601 810 601C780 601 750 601 720 601C690 601 660 601 630 601C600 601 570 601 540 601C510 601 480 601 450 601C420 601 390 601 360 601C330 601 300 601 270 601C240 601 210 601 180 601C150 601 120 601 90 601C60 601 30 601 15 601L0 601Z" fill="#112442"></path><path d="M0 559L15 559.2C30 559.3 60 559.7 90 559.3C120 559 150 558 180 557.3C210 556.7 240 556.3 270 557C300 557.7 330 559.3 360 559.3C390 559.3 420 557.7 450 556.5C480 555.3 510 554.7 540 554.8C570 555 600 556 630 556.7C660 557.3 690 557.7 720 557.5C750 557.3 780 556.7 810 556.2C840 555.7 870 555.3 885 555.2L900 555L900 601L885 601C870 601 840 601 810 601C780 601 750 601 720 601C690 601 660 601 630 601C600 601 570 601 540 601C510 601 480 601 450 601C420 601 390 601 360 601C330 601 300 601 270 601C240 601 210 601 180 601C150 601 120 601 90 601C60 601 30 601 15 601L0 601Z" fill="#02203b"></path></svg>