<svg id="visual" viewBox="0 0 900 600" width="900" height="600" xmlns="http://www.w3.org/2000/svg" xmlns:xlink="http://www.w3.org/1999/xlink" version="1.1"><rect x="0" y="0" width="900" height="600" fill="#001220"></rect><path d="M0 342L15 337.3C30 332.7 60 323.3 90 325.3C120 327.3 150 340.7 180 344C210 347.3 240 340.7 270 332.7C300 324.7 330 315.3 360 315C390 314.7 420 323.3 450 327.5C480 331.7 510 331.3 540 330.7C570 330 600 329 630 325.8C660 322.7 690 317.3 720 314.2C750 311 780 310 810 309.5C840 309 870 309 885 309L900 309L900 601L885 601C870 601 840 601 810 601C780 601 750 601 720 601C690 601 660 601 630 601C600 601 570 601 540 601C510 601 480 601 450 601C420 601 390 601 360 601C330 601 300 601 270 601C240 601 210 601 180 601C150 601 120 601 90 601C60 601 30 601 15 601L0 601Z" fill="#8a4562"></path><path d="M0 353L15 356C30 359 60 365 90 361.3C120 357.7 150 344.3 180 343.8C210 343.3 240 355.7 270 357C300 358.3 330 348.7 360 346.5C390 344.3 420 349.7 450 347.7C480 345.7 510 336.3 540 333.3C570 330.3 600 333.7 630 336C660 338.3 690 339.7 720 342.2C750 344.7 780 348.3 810 348.8C840 349.3 870 346.7 885 345.3L900 344L900 601L885 601C870 601 840 601 810 601C780 601 750 601 720 601C690 601 660 601 630 601C600 601 570 601 540 601C510 601 480 601 450 601C420 601 390 601 360 601C330 601 300 601 270 601C240 601 210 601 180 601C150 601 120 601 90 601C60 601 30 601 15 601L0 601Z" fill="#7f4162"></path><path d="M0 389L15 389.2C30 389.3 60 389.7 90 383.8C120 378 150 366 180 361.2C210 356.3 240 358.7 270 358.2C300 357.7 330 354.3 360 355.7C390 357 420 363 450 369.3C480 375.7 510 382.3 540 384.5C570 386.7 600 384.3 630 382.2C660 380 690 378 720 379.8C750 381.7 780 387.3 810 384.7C840 382 870 371 885 365.5L900 360L900 601L885 601C870 601 840 601 810 601C780 601 750 601 720 601C690 601 660 601 630 601C600 601 570 601 540 601C510 601 480 601 450 601C420 601 390 601 360 601C330 601 300 601 270 601C240 601 210 601 180 601C150 601 120 601 90 601C60 601 30 601 15 601L0 601Z" fill="#733e61"></path><path d="M0 403L15 403.5C30 404 60 405 90 404.5C120 404 150 402 180 399.7C210 397.3 240 394.7 270 391.5C300 388.3 330 384.7 360 385.3C390 386 420 391 450 393.7C480 396.3 510 396.7 540 397.2C570 397.7 600 398.3 630 399.5C660 400.7 690 402.3 720 399.7C750 397 780 390 810 384.7C840 379.3 870 375.7 885 373.8L900 372L900 601L885 601C870 601 840 601 810 601C780 601 750 601 720 601C690 601 660 601 630 601C600 601 570 601 540 601C510 601 480 601 450 601C420 601 390 601 360 601C330 601 300 601 270 601C240 601 210 601 180 601C150 601 120 601 90 601C60 601 30 601 15 601L0 601Z" fill="#673b60"></path><path d="M0 423L15 421.5C30 420 60 417 90 413.7C120 410.3 150 406.7 180 405.7C210 404.7 240 406.3 270 408.7C300 411 330 414 360 416.5C390 419 420 421 450 421.7C480 422.3 510 421.7 540 420.2C570 418.7 600 416.3 630 417.3C660 418.3 690 422.7 720 423.7C750 424.7 780 422.3 810 422.7C840 423 870 426 885 427.5L900 429L900 601L885 601C870 601 840 601 810 601C780 601 750 601 720 601C690 601 660 601 630 601C600 601 570 601 540 601C510 601 480 601 450 601C420 601 390 601 360 601C330 601 300 601 270 601C240 601 210 601 180 601C150 601 120 601 90 601C60 601 30 601 15 601L0 601Z" fill="#5b375e"></path><path d="M0 429L15 430.8C30 432.7 60 436.3 90 436.8C120 437.3 150 434.7 180 434C210 433.3 240 434.7 270 437.5C300 440.3 330 444.7 360 446.8C390 449 420 449 450 445.7C480 442.3 510 435.7 540 431.2C570 426.7 600 424.3 630 422.3C660 420.3 690 418.7 720 419.7C750 420.7 780 424.3 810 424.5C840 424.7 870 421.3 885 419.7L900 418L900 601L885 601C870 601 840 601 810 601C780 601 750 601 720 601C690 601 660 601 630 601C600 601 570 601 540 601C510 601 480 601 450 601C420 601 390 601 360 601C330 601 300 601 270 601C240 601 210 601 180 601C150 601 120 601 90 601C60 601 30 601 15 601L0 601Z" fill="#4f355b"></path><path d="M0 456L15 457.3C30 458.7 60 461.3 90 460C120 458.7 150 453.3 180 452C210 450.7 240 453.3 270 453C300 452.7 330 449.3 360 447.2C390 445 420 444 450 444.3C480 444.7 510 446.3 540 447.5C570 448.7 600 449.3 630 450.7C660 452 690 454 720 454.3C750 454.7 780 453.3 810 452C840 450.7 870 449.3 885 448.7L900 448L900 601L885 601C870 601 840 601 810 601C780 601 750 601 720 601C690 601 660 601 630 601C600 601 570 601 540 601C510 601 480 601 450 601C420 601 390 601 360 601C330 601 300 601 270 601C240 601 210 601 180 601C150 601 120 601 90 601C60 601 30 601 15 601L0 601Z" fill="#433157"></path><path d="M0 467L15 469C30 471 60 475 90 475.8C120 476.7 150 474.3 180 474C210 473.7 240 475.3 270 474.3C300 473.3 330 469.7 360 468C390 466.3 420 466.7 450 468.5C480 470.3 510 473.7 540 473.8C570 474 600 471 630 470C660 469 690 470 720 469.5C750 469 780 467 810 468.8C840 470.7 870 476.3 885 479.2L900 482L900 601L885 601C870 601 840 601 810 601C780 601 750 601 720 601C690 601 660 601 630 601C600 601 570 601 540 601C510 601 480 601 450 601C420 601 390 601 360 601C330 601 300 601 270 601C240 601 210 601 180 601C150 601 120 601 90 601C60 601 30 601 15 601L0 601Z" fill="#372e53"></path><path d="M0 490L15 490C30 490 60 490 90 489.7C120 489.3 150 488.7 180 490.7C210 492.7 240 497.3 270 497.3C300 497.3 330 492.7 360 490.3C390 488 420 488 450 487.5C480 487 510 486 540 485.5C570 485 600 485 630 487.5C660 490 690 495 720 497.5C750 500 780 500 810 497.5C840 495 870 490 885 487.5L900 485L900 601L885 601C870 601 840 601 810 601C780 601 750 601 720 601C690 601 660 601 630 601C600 601 570 601 540 601C510 601 480 601 450 601C420 601 390 601 360 601C330 601 300 601 270 601C240 601 210 601 180 601C150 601 120 601 90 601C60 601 30 601 15 601L0 601Z" fill="#2a2b4e"></path><path d="M0 519L15 517.3C30 515.7 60 512.3 90 512.7C120 513 150 517 180 516.8C210 516.7 240 512.3 270 510.3C300 508.3 330 508.7 360 510.2C390 511.7 420 514.3 450 516.7C480 519 510 521 540 520.8C570 520.7 600 518.3 630 515.8C660 513.3 690 510.7 720 510.3C750 510 780 512 810 513.8C840 515.7 870 517.3 885 518.2L900 519L900 601L885 601C870 601 840 601 810 601C780 601 750 601 720 601C690 601 660 601 630 601C600 601 570 601 540 601C510 601 480 601 450 601C420 601 390 601 360 601C330 601 300 601 270 601C240 601 210 601 180 601C150 601 120 601 90 601C60 601 30 601 15 601L0 601Z" fill="#1e2748"></path><path d="M0 541L15 540C30 539 60 537 90 535.3C120 533.7 150 532.3 180 533.3C210 534.3 240 537.7 270 537.8C300 538 330 535 360 533.5C390 532 420 532 450 532.2C480 532.3 510 532.7 540 534.3C570 536 600 539 630 540C660 541 690 540 720 539.2C750 538.3 780 537.7 810 536.7C840 535.7 870 534.3 885 533.7L900 533L900 601L885 601C870 601 840 601 810 601C780 601 750 601 720 601C690 601 660 601 630 601C600 601 570 601 540 601C510 601 480 601 450 601C420 601 390 601 360 601C330 601 300 601 270 601C240 601 210 601 180 601C150 601 120 601 90 601C60 601 30 601 15 601L0 601Z" fill="#112442"></path><path d="M0 556L15 556.8C30 557.7 60 559.3 90 559.3C120 559.3 150 557.7 180 557.7C210 557.7 240 559.3 270 560.2C300 561 330 561 360 559.8C390 558.7 420 556.3 450 555.5C480 554.7 510 555.3 540 556.5C570 557.7 600 559.3 630 560C660 560.7 690 560.3 720 559.7C750 559 780 558 810 557.5C840 557 870 557 885 557L900 557L900 601L885 601C870 601 840 601 810 601C780 601 750 601 720 601C690 601 660 601 630 601C600 601 570 601 540 601C510 601 480 601 450 601C420 601 390 601 360 601C330 601 300 601 270 601C240 601 210 601 180 601C150 601 120 601 90 601C60 601 30 601 15 601L0 601Z" fill="#02203b"></path></svg>