<svg id="visual" viewBox="0 0 900 600" width="900" height="600" xmlns="http://www.w3.org/2000/svg" xmlns:xlink="http://www.w3.org/1999/xlink" version="1.1"><rect x="0" y="0" width="900" height="600" fill="#001220"></rect><path d="M0 318L15 315.5C30 313 60 308 90 306.3C120 304.7 150 306.3 180 307.3C210 308.3 240 308.7 270 312.2C300 315.7 330 322.3 360 329C390 335.7 420 342.3 450 341.3C480 340.3 510 331.7 540 332.2C570 332.7 600 342.3 630 341.2C660 340 690 328 720 320.8C750 313.7 780 311.3 810 311.2C840 311 870 313 885 314L900 315L900 601L885 601C870 601 840 601 810 601C780 601 750 601 720 601C690 601 660 601 630 601C600 601 570 601 540 601C510 601 480 601 450 601C420 601 390 601 360 601C330 601 300 601 270 601C240 601 210 601 180 601C150 601 120 601 90 601C60 601 30 601 15 601L0 601Z" fill="#8a4562"></path><path d="M0 333L15 336.5C30 340 60 347 90 347C120 347 150 340 180 343C210 346 240 359 270 360.2C300 361.3 330 350.7 360 344C390 337.3 420 334.7 450 333.5C480 332.3 510 332.7 540 333.7C570 334.7 600 336.3 630 339.3C660 342.3 690 346.7 720 351.2C750 355.7 780 360.3 810 363.5C840 366.7 870 368.3 885 369.2L900 370L900 601L885 601C870 601 840 601 810 601C780 601 750 601 720 601C690 601 660 601 630 601C600 601 570 601 540 601C510 601 480 601 450 601C420 601 390 601 360 601C330 601 300 601 270 601C240 601 210 601 180 601C150 601 120 601 90 601C60 601 30 601 15 601L0 601Z" fill="#7f4162"></path><path d="M0 362L15 365.8C30 369.7 60 377.3 90 378.8C120 380.3 150 375.7 180 374.7C210 373.7 240 376.3 270 378C300 379.7 330 380.3 360 377.7C390 375 420 369 450 363.7C480 358.3 510 353.7 540 357.5C570 361.3 600 373.7 630 380.5C660 387.3 690 388.7 720 388.8C750 389 780 388 810 383.8C840 379.7 870 372.3 885 368.7L900 365L900 601L885 601C870 601 840 601 810 601C780 601 750 601 720 601C690 601 660 601 630 601C600 601 570 601 540 601C510 601 480 601 450 601C420 601 390 601 360 601C330 601 300 601 270 601C240 601 210 601 180 601C150 601 120 601 90 601C60 601 30 601 15 601L0 601Z" fill="#733e61"></path><path d="M0 371L15 372.2C30 373.3 60 375.7 90 375.7C120 375.7 150 373.3 180 376.5C210 379.7 240 388.3 270 389.7C300 391 330 385 360 387.2C390 389.3 420 399.7 450 398.7C480 397.7 510 385.3 540 383C570 380.7 600 388.3 630 393.5C660 398.7 690 401.3 720 401C750 400.7 780 397.3 810 395.3C840 393.3 870 392.7 885 392.3L900 392L900 601L885 601C870 601 840 601 810 601C780 601 750 601 720 601C690 601 660 601 630 601C600 601 570 601 540 601C510 601 480 601 450 601C420 601 390 601 360 601C330 601 300 601 270 601C240 601 210 601 180 601C150 601 120 601 90 601C60 601 30 601 15 601L0 601Z" fill="#673b60"></path><path d="M0 405L15 403.5C30 402 60 399 90 401.3C120 403.7 150 411.3 180 412.8C210 414.3 240 409.7 270 406.7C300 403.7 330 402.3 360 406.7C390 411 420 421 450 423.8C480 426.7 510 422.3 540 419.2C570 416 600 414 630 410C660 406 690 400 720 398.3C750 396.7 780 399.3 810 399.8C840 400.3 870 398.7 885 397.8L900 397L900 601L885 601C870 601 840 601 810 601C780 601 750 601 720 601C690 601 660 601 630 601C600 601 570 601 540 601C510 601 480 601 450 601C420 601 390 601 360 601C330 601 300 601 270 601C240 601 210 601 180 601C150 601 120 601 90 601C60 601 30 601 15 601L0 601Z" fill="#5b375e"></path><path d="M0 441L15 442.2C30 443.3 60 445.7 90 441.7C120 437.7 150 427.3 180 422.8C210 418.3 240 419.7 270 419.8C300 420 330 419 360 421.7C390 424.3 420 430.7 450 432.8C480 435 510 433 540 433C570 433 600 435 630 434C660 433 690 429 720 428.5C750 428 780 431 810 433C840 435 870 436 885 436.5L900 437L900 601L885 601C870 601 840 601 810 601C780 601 750 601 720 601C690 601 660 601 630 601C600 601 570 601 540 601C510 601 480 601 450 601C420 601 390 601 360 601C330 601 300 601 270 601C240 601 210 601 180 601C150 601 120 601 90 601C60 601 30 601 15 601L0 601Z" fill="#4f355b"></path><path d="M0 445L15 446.3C30 447.7 60 450.3 90 450.3C120 450.3 150 447.7 180 445.8C210 444 240 443 270 445.2C300 447.3 330 452.7 360 454.8C390 457 420 456 450 457.2C480 458.3 510 461.7 540 460.7C570 459.7 600 454.3 630 453.3C660 452.3 690 455.7 720 457.7C750 459.7 780 460.3 810 458.7C840 457 870 453 885 451L900 449L900 601L885 601C870 601 840 601 810 601C780 601 750 601 720 601C690 601 660 601 630 601C600 601 570 601 540 601C510 601 480 601 450 601C420 601 390 601 360 601C330 601 300 601 270 601C240 601 210 601 180 601C150 601 120 601 90 601C60 601 30 601 15 601L0 601Z" fill="#433157"></path><path d="M0 469L15 468.3C30 467.7 60 466.3 90 467.5C120 468.7 150 472.3 180 473.8C210 475.3 240 474.7 270 473.3C300 472 330 470 360 470.3C390 470.7 420 473.3 450 474.5C480 475.7 510 475.3 540 473.5C570 471.7 600 468.3 630 467.3C660 466.3 690 467.7 720 468.8C750 470 780 471 810 471C840 471 870 470 885 469.5L900 469L900 601L885 601C870 601 840 601 810 601C780 601 750 601 720 601C690 601 660 601 630 601C600 601 570 601 540 601C510 601 480 601 450 601C420 601 390 601 360 601C330 601 300 601 270 601C240 601 210 601 180 601C150 601 120 601 90 601C60 601 30 601 15 601L0 601Z" fill="#372e53"></path><path d="M0 494L15 492.7C30 491.3 60 488.7 90 489.8C120 491 150 496 180 497.7C210 499.3 240 497.7 270 495.7C300 493.7 330 491.3 360 491.7C390 492 420 495 450 494.5C480 494 510 490 540 490.5C570 491 600 496 630 498.2C660 500.3 690 499.7 720 498.3C750 497 780 495 810 494.5C840 494 870 495 885 495.5L900 496L900 601L885 601C870 601 840 601 810 601C780 601 750 601 720 601C690 601 660 601 630 601C600 601 570 601 540 601C510 601 480 601 450 601C420 601 390 601 360 601C330 601 300 601 270 601C240 601 210 601 180 601C150 601 120 601 90 601C60 601 30 601 15 601L0 601Z" fill="#2a2b4e"></path><path d="M0 509L15 510.5C30 512 60 515 90 516.7C120 518.3 150 518.7 180 519.3C210 520 240 521 270 520.8C300 520.7 330 519.3 360 518.8C390 518.3 420 518.7 450 519.2C480 519.7 510 520.3 540 520C570 519.7 600 518.3 630 517.8C660 517.3 690 517.7 720 516.2C750 514.7 780 511.3 810 511.2C840 511 870 514 885 515.5L900 517L900 601L885 601C870 601 840 601 810 601C780 601 750 601 720 601C690 601 660 601 630 601C600 601 570 601 540 601C510 601 480 601 450 601C420 601 390 601 360 601C330 601 300 601 270 601C240 601 210 601 180 601C150 601 120 601 90 601C60 601 30 601 15 601L0 601Z" fill="#1e2748"></path><path d="M0 537L15 536.3C30 535.7 60 534.3 90 533.3C120 532.3 150 531.7 180 532.3C210 533 240 535 270 536C300 537 330 537 360 536.2C390 535.3 420 533.7 450 534.2C480 534.7 510 537.3 540 539.2C570 541 600 542 630 541.7C660 541.3 690 539.7 720 537.7C750 535.7 780 533.3 810 532.5C840 531.7 870 532.3 885 532.7L900 533L900 601L885 601C870 601 840 601 810 601C780 601 750 601 720 601C690 601 660 601 630 601C600 601 570 601 540 601C510 601 480 601 450 601C420 601 390 601 360 601C330 601 300 601 270 601C240 601 210 601 180 601C150 601 120 601 90 601C60 601 30 601 15 601L0 601Z" fill="#112442"></path><path d="M0 556L15 556.3C30 556.7 60 557.3 90 557.5C120 557.7 150 557.3 180 557.7C210 558 240 559 270 559.2C300 559.3 330 558.7 360 557.7C390 556.7 420 555.3 450 555.7C480 556 510 558 540 558C570 558 600 556 630 555.2C660 554.3 690 554.7 720 555.8C750 557 780 559 810 559.2C840 559.3 870 557.7 885 556.8L900 556L900 601L885 601C870 601 840 601 810 601C780 601 750 601 720 601C690 601 660 601 630 601C600 601 570 601 540 601C510 601 480 601 450 601C420 601 390 601 360 601C330 601 300 601 270 601C240 601 210 601 180 601C150 601 120 601 90 601C60 601 30 601 15 601L0 601Z" fill="#02203b"></path></svg>