<svg id="visual" viewBox="0 0 900 600" width="900" height="600" xmlns="http://www.w3.org/2000/svg" xmlns:xlink="http://www.w3.org/1999/xlink" version="1.1"><rect x="0" y="0" width="900" height="600" fill="#001220"></rect><path d="M0 355L15 352.5C30 350 60 345 90 337.5C120 330 150 320 180 318.3C210 316.7 240 323.3 270 327.3C300 331.3 330 332.7 360 333.7C390 334.7 420 335.3 450 336.5C480 337.7 510 339.3 540 336C570 332.7 600 324.3 630 321.7C660 319 690 322 720 325.8C750 329.7 780 334.3 810 331C840 327.7 870 316.3 885 310.7L900 305L900 601L885 601C870 601 840 601 810 601C780 601 750 601 720 601C690 601 660 601 630 601C600 601 570 601 540 601C510 601 480 601 450 601C420 601 390 601 360 601C330 601 300 601 270 601C240 601 210 601 180 601C150 601 120 601 90 601C60 601 30 601 15 601L0 601Z" fill="#8a4562"></path><path d="M0 356L15 357.3C30 358.7 60 361.3 90 359.5C120 357.7 150 351.3 180 350.5C210 349.7 240 354.3 270 355C300 355.7 330 352.3 360 354C390 355.7 420 362.3 450 361.5C480 360.7 510 352.3 540 347.8C570 343.3 600 342.7 630 345.8C660 349 690 356 720 359.7C750 363.3 780 363.7 810 358C840 352.3 870 340.7 885 334.8L900 329L900 601L885 601C870 601 840 601 810 601C780 601 750 601 720 601C690 601 660 601 630 601C600 601 570 601 540 601C510 601 480 601 450 601C420 601 390 601 360 601C330 601 300 601 270 601C240 601 210 601 180 601C150 601 120 601 90 601C60 601 30 601 15 601L0 601Z" fill="#7f4162"></path><path d="M0 349L15 356.3C30 363.7 60 378.3 90 382C120 385.7 150 378.3 180 373.3C210 368.3 240 365.7 270 363.3C300 361 330 359 360 357.8C390 356.7 420 356.3 450 362.3C480 368.3 510 380.7 540 386.2C570 391.7 600 390.3 630 388C660 385.7 690 382.3 720 377.8C750 373.3 780 367.7 810 364.7C840 361.7 870 361.3 885 361.2L900 361L900 601L885 601C870 601 840 601 810 601C780 601 750 601 720 601C690 601 660 601 630 601C600 601 570 601 540 601C510 601 480 601 450 601C420 601 390 601 360 601C330 601 300 601 270 601C240 601 210 601 180 601C150 601 120 601 90 601C60 601 30 601 15 601L0 601Z" fill="#733e61"></path><path d="M0 375L15 378.7C30 382.3 60 389.7 90 392.2C120 394.7 150 392.3 180 389.2C210 386 240 382 270 383.7C300 385.3 330 392.7 360 396.3C390 400 420 400 450 397.2C480 394.3 510 388.7 540 385.8C570 383 600 383 630 381.3C660 379.7 690 376.3 720 375.5C750 374.7 780 376.3 810 376.5C840 376.7 870 375.3 885 374.7L900 374L900 601L885 601C870 601 840 601 810 601C780 601 750 601 720 601C690 601 660 601 630 601C600 601 570 601 540 601C510 601 480 601 450 601C420 601 390 601 360 601C330 601 300 601 270 601C240 601 210 601 180 601C150 601 120 601 90 601C60 601 30 601 15 601L0 601Z" fill="#673b60"></path><path d="M0 423L15 423.7C30 424.3 60 425.7 90 425.5C120 425.3 150 423.7 180 420.3C210 417 240 412 270 410.3C300 408.7 330 410.3 360 410.8C390 411.3 420 410.7 450 411C480 411.3 510 412.7 540 414.8C570 417 600 420 630 422.3C660 424.7 690 426.3 720 422.2C750 418 780 408 810 405.5C840 403 870 408 885 410.5L900 413L900 601L885 601C870 601 840 601 810 601C780 601 750 601 720 601C690 601 660 601 630 601C600 601 570 601 540 601C510 601 480 601 450 601C420 601 390 601 360 601C330 601 300 601 270 601C240 601 210 601 180 601C150 601 120 601 90 601C60 601 30 601 15 601L0 601Z" fill="#5b375e"></path><path d="M0 418L15 423.2C30 428.3 60 438.7 90 443.7C120 448.7 150 448.3 180 445.5C210 442.7 240 437.3 270 435.5C300 433.7 330 435.3 360 434C390 432.7 420 428.3 450 427.2C480 426 510 428 540 428.2C570 428.3 600 426.7 630 426.3C660 426 690 427 720 430.8C750 434.7 780 441.3 810 441.5C840 441.7 870 435.3 885 432.2L900 429L900 601L885 601C870 601 840 601 810 601C780 601 750 601 720 601C690 601 660 601 630 601C600 601 570 601 540 601C510 601 480 601 450 601C420 601 390 601 360 601C330 601 300 601 270 601C240 601 210 601 180 601C150 601 120 601 90 601C60 601 30 601 15 601L0 601Z" fill="#4f355b"></path><path d="M0 466L15 462.3C30 458.7 60 451.3 90 451C120 450.7 150 457.3 180 461.2C210 465 240 466 270 465.8C300 465.7 330 464.3 360 462.2C390 460 420 457 450 456.7C480 456.3 510 458.7 540 459.2C570 459.7 600 458.3 630 455.2C660 452 690 447 720 447.5C750 448 780 454 810 456.8C840 459.7 870 459.3 885 459.2L900 459L900 601L885 601C870 601 840 601 810 601C780 601 750 601 720 601C690 601 660 601 630 601C600 601 570 601 540 601C510 601 480 601 450 601C420 601 390 601 360 601C330 601 300 601 270 601C240 601 210 601 180 601C150 601 120 601 90 601C60 601 30 601 15 601L0 601Z" fill="#433157"></path><path d="M0 471L15 472.7C30 474.3 60 477.7 90 478.2C120 478.7 150 476.3 180 474.7C210 473 240 472 270 472.2C300 472.3 330 473.7 360 473.2C390 472.7 420 470.3 450 469.3C480 468.3 510 468.7 540 471.3C570 474 600 479 630 481.7C660 484.3 690 484.7 720 483.5C750 482.3 780 479.7 810 479C840 478.3 870 479.7 885 480.3L900 481L900 601L885 601C870 601 840 601 810 601C780 601 750 601 720 601C690 601 660 601 630 601C600 601 570 601 540 601C510 601 480 601 450 601C420 601 390 601 360 601C330 601 300 601 270 601C240 601 210 601 180 601C150 601 120 601 90 601C60 601 30 601 15 601L0 601Z" fill="#372e53"></path><path d="M0 501L15 500.5C30 500 60 499 90 499.3C120 499.7 150 501.3 180 502.2C210 503 240 503 270 501.8C300 500.7 330 498.3 360 496C390 493.7 420 491.3 450 492C480 492.7 510 496.3 540 498.5C570 500.7 600 501.3 630 500.5C660 499.7 690 497.3 720 497.8C750 498.3 780 501.7 810 502.7C840 503.7 870 502.3 885 501.7L900 501L900 601L885 601C870 601 840 601 810 601C780 601 750 601 720 601C690 601 660 601 630 601C600 601 570 601 540 601C510 601 480 601 450 601C420 601 390 601 360 601C330 601 300 601 270 601C240 601 210 601 180 601C150 601 120 601 90 601C60 601 30 601 15 601L0 601Z" fill="#2a2b4e"></path><path d="M0 509L15 509.3C30 509.7 60 510.3 90 511.8C120 513.3 150 515.7 180 517.7C210 519.7 240 521.3 270 520C300 518.7 330 514.3 360 512.7C390 511 420 512 450 513.2C480 514.3 510 515.7 540 517.5C570 519.3 600 521.7 630 521.2C660 520.7 690 517.3 720 517C750 516.7 780 519.3 810 520.8C840 522.3 870 522.7 885 522.8L900 523L900 601L885 601C870 601 840 601 810 601C780 601 750 601 720 601C690 601 660 601 630 601C600 601 570 601 540 601C510 601 480 601 450 601C420 601 390 601 360 601C330 601 300 601 270 601C240 601 210 601 180 601C150 601 120 601 90 601C60 601 30 601 15 601L0 601Z" fill="#1e2748"></path><path d="M0 541L15 540.5C30 540 60 539 90 537.5C120 536 150 534 180 534C210 534 240 536 270 537C300 538 330 538 360 537.5C390 537 420 536 450 535.3C480 534.7 510 534.3 540 535.3C570 536.3 600 538.7 630 540C660 541.3 690 541.7 720 540.8C750 540 780 538 810 537.5C840 537 870 538 885 538.5L900 539L900 601L885 601C870 601 840 601 810 601C780 601 750 601 720 601C690 601 660 601 630 601C600 601 570 601 540 601C510 601 480 601 450 601C420 601 390 601 360 601C330 601 300 601 270 601C240 601 210 601 180 601C150 601 120 601 90 601C60 601 30 601 15 601L0 601Z" fill="#112442"></path><path d="M0 558L15 557.5C30 557 60 556 90 555.5C120 555 150 555 180 555.3C210 555.7 240 556.3 270 557.3C300 558.3 330 559.7 360 559.8C390 560 420 559 450 557.8C480 556.7 510 555.3 540 555C570 554.7 600 555.3 630 556C660 556.7 690 557.3 720 557C750 556.7 780 555.3 810 555.3C840 555.3 870 556.7 885 557.3L900 558L900 601L885 601C870 601 840 601 810 601C780 601 750 601 720 601C690 601 660 601 630 601C600 601 570 601 540 601C510 601 480 601 450 601C420 601 390 601 360 601C330 601 300 601 270 601C240 601 210 601 180 601C150 601 120 601 90 601C60 601 30 601 15 601L0 601Z" fill="#02203b"></path></svg>