<svg id="visual" viewBox="0 0 900 600" width="900" height="600" xmlns="http://www.w3.org/2000/svg" xmlns:xlink="http://www.w3.org/1999/xlink" version="1.1"><rect x="0" y="0" width="900" height="600" fill="#001220"></rect><path d="M0 153L21.5 159.8C43 166.7 86 180.3 128.8 187.7C171.7 195 214.3 196 257.2 196.2C300 196.3 343 195.7 385.8 188.3C428.7 181 471.3 167 514.2 167C557 167 600 181 642.8 187.7C685.7 194.3 728.3 193.7 771.2 190.3C814 187 857 181 878.5 178L900 175L900 601L878.5 601C857 601 814 601 771.2 601C728.3 601 685.7 601 642.8 601C600 601 557 601 514.2 601C471.3 601 428.7 601 385.8 601C343 601 300 601 257.2 601C214.3 601 171.7 601 128.8 601C86 601 43 601 21.5 601L0 601Z" fill="#c62368"></path><path d="M0 230L21.5 226.5C43 223 86 216 128.8 215.7C171.7 215.3 214.3 221.7 257.2 223.8C300 226 343 224 385.8 227.3C428.7 230.7 471.3 239.3 514.2 237.8C557 236.3 600 224.7 642.8 226.2C685.7 227.7 728.3 242.3 771.2 244.2C814 246 857 235 878.5 229.5L900 224L900 601L878.5 601C857 601 814 601 771.2 601C728.3 601 685.7 601 642.8 601C600 601 557 601 514.2 601C471.3 601 428.7 601 385.8 601C343 601 300 601 257.2 601C214.3 601 171.7 601 128.8 601C86 601 43 601 21.5 601L0 601Z" fill="#cf3068"></path><path d="M0 283L21.5 282C43 281 86 279 128.8 276.2C171.7 273.3 214.3 269.7 257.2 270.7C300 271.7 343 277.3 385.8 282.5C428.7 287.7 471.3 292.3 514.2 296.8C557 301.3 600 305.7 642.8 306.7C685.7 307.7 728.3 305.3 771.2 304.3C814 303.3 857 303.7 878.5 303.8L900 304L900 601L878.5 601C857 601 814 601 771.2 601C728.3 601 685.7 601 642.8 601C600 601 557 601 514.2 601C471.3 601 428.7 601 385.8 601C343 601 300 601 257.2 601C214.3 601 171.7 601 128.8 601C86 601 43 601 21.5 601L0 601Z" fill="#d73b67"></path><path d="M0 335L21.5 335.7C43 336.3 86 337.7 128.8 337.3C171.7 337 214.3 335 257.2 333.3C300 331.7 343 330.3 385.8 329.8C428.7 329.3 471.3 329.7 514.2 329.8C557 330 600 330 642.8 332.7C685.7 335.3 728.3 340.7 771.2 340.3C814 340 857 334 878.5 331L900 328L900 601L878.5 601C857 601 814 601 771.2 601C728.3 601 685.7 601 642.8 601C600 601 557 601 514.2 601C471.3 601 428.7 601 385.8 601C343 601 300 601 257.2 601C214.3 601 171.7 601 128.8 601C86 601 43 601 21.5 601L0 601Z" fill="#df4667"></path><path d="M0 400L21.5 397.8C43 395.7 86 391.3 128.8 387C171.7 382.7 214.3 378.3 257.2 379.8C300 381.3 343 388.7 385.8 389.2C428.7 389.7 471.3 383.3 514.2 384C557 384.7 600 392.3 642.8 392.8C685.7 393.3 728.3 386.7 771.2 386.8C814 387 857 394 878.5 397.5L900 401L900 601L878.5 601C857 601 814 601 771.2 601C728.3 601 685.7 601 642.8 601C600 601 557 601 514.2 601C471.3 601 428.7 601 385.8 601C343 601 300 601 257.2 601C214.3 601 171.7 601 128.8 601C86 601 43 601 21.5 601L0 601Z" fill="#e75167"></path><path d="M0 432L21.5 430.2C43 428.3 86 424.7 128.8 427C171.7 429.3 214.3 437.7 257.2 438.7C300 439.7 343 433.3 385.8 429.5C428.7 425.7 471.3 424.3 514.2 426.5C557 428.7 600 434.3 642.8 436.5C685.7 438.7 728.3 437.3 771.2 433.3C814 429.3 857 422.7 878.5 419.3L900 416L900 601L878.5 601C857 601 814 601 771.2 601C728.3 601 685.7 601 642.8 601C600 601 557 601 514.2 601C471.3 601 428.7 601 385.8 601C343 601 300 601 257.2 601C214.3 601 171.7 601 128.8 601C86 601 43 601 21.5 601L0 601Z" fill="#ee5c67"></path><path d="M0 497L21.5 496.7C43 496.3 86 495.7 128.8 491C171.7 486.3 214.3 477.7 257.2 478C300 478.3 343 487.7 385.8 491.3C428.7 495 471.3 493 514.2 491.3C557 489.7 600 488.3 642.8 487.7C685.7 487 728.3 487 771.2 487.8C814 488.7 857 490.3 878.5 491.2L900 492L900 601L878.5 601C857 601 814 601 771.2 601C728.3 601 685.7 601 642.8 601C600 601 557 601 514.2 601C471.3 601 428.7 601 385.8 601C343 601 300 601 257.2 601C214.3 601 171.7 601 128.8 601C86 601 43 601 21.5 601L0 601Z" fill="#f46767"></path><path d="M0 539L21.5 536.8C43 534.7 86 530.3 128.8 528C171.7 525.7 214.3 525.3 257.2 526.2C300 527 343 529 385.8 529.3C428.7 529.7 471.3 528.3 514.2 527.5C557 526.7 600 526.3 642.8 529.2C685.7 532 728.3 538 771.2 540.5C814 543 857 542 878.5 541.5L900 541L900 601L878.5 601C857 601 814 601 771.2 601C728.3 601 685.7 601 642.8 601C600 601 557 601 514.2 601C471.3 601 428.7 601 385.8 601C343 601 300 601 257.2 601C214.3 601 171.7 601 128.8 601C86 601 43 601 21.5 601L0 601Z" fill="#fa7268"></path></svg>