<svg id="visual" viewBox="0 0 900 600" width="900" height="600" xmlns="http://www.w3.org/2000/svg" xmlns:xlink="http://www.w3.org/1999/xlink" version="1.1"><rect x="0" y="0" width="900" height="600" fill="#001220"></rect><path d="M0 173L21.5 179.2C43 185.3 86 197.7 128.8 200.5C171.7 203.3 214.3 196.7 257.2 195.7C300 194.7 343 199.3 385.8 193.3C428.7 187.3 471.3 170.7 514.2 172C557 173.3 600 192.7 642.8 199.8C685.7 207 728.3 202 771.2 199.5C814 197 857 197 878.5 197L900 197L900 601L878.5 601C857 601 814 601 771.2 601C728.3 601 685.7 601 642.8 601C600 601 557 601 514.2 601C471.3 601 428.7 601 385.8 601C343 601 300 601 257.2 601C214.3 601 171.7 601 128.8 601C86 601 43 601 21.5 601L0 601Z" fill="#c62368"></path><path d="M0 221L21.5 225.2C43 229.3 86 237.7 128.8 236C171.7 234.3 214.3 222.7 257.2 216.7C300 210.7 343 210.3 385.8 211.2C428.7 212 471.3 214 514.2 222.2C557 230.3 600 244.7 642.8 246.8C685.7 249 728.3 239 771.2 236.2C814 233.3 857 237.7 878.5 239.8L900 242L900 601L878.5 601C857 601 814 601 771.2 601C728.3 601 685.7 601 642.8 601C600 601 557 601 514.2 601C471.3 601 428.7 601 385.8 601C343 601 300 601 257.2 601C214.3 601 171.7 601 128.8 601C86 601 43 601 21.5 601L0 601Z" fill="#cf3068"></path><path d="M0 276L21.5 282C43 288 86 300 128.8 299.7C171.7 299.3 214.3 286.7 257.2 285C300 283.3 343 292.7 385.8 294.8C428.7 297 471.3 292 514.2 287.5C557 283 600 279 642.8 277.8C685.7 276.7 728.3 278.3 771.2 280.2C814 282 857 284 878.5 285L900 286L900 601L878.5 601C857 601 814 601 771.2 601C728.3 601 685.7 601 642.8 601C600 601 557 601 514.2 601C471.3 601 428.7 601 385.8 601C343 601 300 601 257.2 601C214.3 601 171.7 601 128.8 601C86 601 43 601 21.5 601L0 601Z" fill="#d73b67"></path><path d="M0 349L21.5 347.7C43 346.3 86 343.7 128.8 340.8C171.7 338 214.3 335 257.2 332.3C300 329.7 343 327.3 385.8 329.8C428.7 332.3 471.3 339.7 514.2 340.3C557 341 600 335 642.8 334C685.7 333 728.3 337 771.2 336.3C814 335.7 857 330.3 878.5 327.7L900 325L900 601L878.5 601C857 601 814 601 771.2 601C728.3 601 685.7 601 642.8 601C600 601 557 601 514.2 601C471.3 601 428.7 601 385.8 601C343 601 300 601 257.2 601C214.3 601 171.7 601 128.8 601C86 601 43 601 21.5 601L0 601Z" fill="#df4667"></path><path d="M0 383L21.5 379.7C43 376.3 86 369.7 128.8 366.8C171.7 364 214.3 365 257.2 369.7C300 374.3 343 382.7 385.8 388.2C428.7 393.7 471.3 396.3 514.2 393.3C557 390.3 600 381.7 642.8 380.8C685.7 380 728.3 387 771.2 384.7C814 382.3 857 370.7 878.5 364.8L900 359L900 601L878.5 601C857 601 814 601 771.2 601C728.3 601 685.7 601 642.8 601C600 601 557 601 514.2 601C471.3 601 428.7 601 385.8 601C343 601 300 601 257.2 601C214.3 601 171.7 601 128.8 601C86 601 43 601 21.5 601L0 601Z" fill="#e75167"></path><path d="M0 431L21.5 428.7C43 426.3 86 421.7 128.8 418.7C171.7 415.7 214.3 414.3 257.2 419.8C300 425.3 343 437.7 385.8 440C428.7 442.3 471.3 434.7 514.2 431.5C557 428.3 600 429.7 642.8 429.3C685.7 429 728.3 427 771.2 428.2C814 429.3 857 433.7 878.5 435.8L900 438L900 601L878.5 601C857 601 814 601 771.2 601C728.3 601 685.7 601 642.8 601C600 601 557 601 514.2 601C471.3 601 428.7 601 385.8 601C343 601 300 601 257.2 601C214.3 601 171.7 601 128.8 601C86 601 43 601 21.5 601L0 601Z" fill="#ee5c67"></path><path d="M0 472L21.5 475C43 478 86 484 128.8 484C171.7 484 214.3 478 257.2 477.5C300 477 343 482 385.8 483.7C428.7 485.3 471.3 483.7 514.2 480.7C557 477.7 600 473.3 642.8 472.5C685.7 471.7 728.3 474.3 771.2 476.3C814 478.3 857 479.7 878.5 480.3L900 481L900 601L878.5 601C857 601 814 601 771.2 601C728.3 601 685.7 601 642.8 601C600 601 557 601 514.2 601C471.3 601 428.7 601 385.8 601C343 601 300 601 257.2 601C214.3 601 171.7 601 128.8 601C86 601 43 601 21.5 601L0 601Z" fill="#f46767"></path><path d="M0 530L21.5 528.2C43 526.3 86 522.7 128.8 523.8C171.7 525 214.3 531 257.2 532.7C300 534.3 343 531.7 385.8 531.7C428.7 531.7 471.3 534.3 514.2 533.8C557 533.3 600 529.7 642.8 529C685.7 528.3 728.3 530.7 771.2 533.2C814 535.7 857 538.3 878.5 539.7L900 541L900 601L878.5 601C857 601 814 601 771.2 601C728.3 601 685.7 601 642.8 601C600 601 557 601 514.2 601C471.3 601 428.7 601 385.8 601C343 601 300 601 257.2 601C214.3 601 171.7 601 128.8 601C86 601 43 601 21.5 601L0 601Z" fill="#fa7268"></path></svg>