<svg id="visual" viewBox="0 0 900 600" width="900" height="600" xmlns="http://www.w3.org/2000/svg" xmlns:xlink="http://www.w3.org/1999/xlink" version="1.1"><rect x="0" y="0" width="900" height="600" fill="#001220"></rect><path d="M0 196L21.5 198.2C43 200.3 86 204.7 128.8 196.3C171.7 188 214.3 167 257.2 162C300 157 343 168 385.8 178.8C428.7 189.7 471.3 200.3 514.2 206.3C557 212.3 600 213.7 642.8 207.7C685.7 201.7 728.3 188.3 771.2 176.8C814 165.3 857 155.7 878.5 150.8L900 146L900 601L878.5 601C857 601 814 601 771.2 601C728.3 601 685.7 601 642.8 601C600 601 557 601 514.2 601C471.3 601 428.7 601 385.8 601C343 601 300 601 257.2 601C214.3 601 171.7 601 128.8 601C86 601 43 601 21.5 601L0 601Z" fill="#c62368"></path><path d="M0 239L21.5 238.8C43 238.7 86 238.3 128.8 236.8C171.7 235.3 214.3 232.7 257.2 227.8C300 223 343 216 385.8 213.8C428.7 211.7 471.3 214.3 514.2 222.5C557 230.7 600 244.3 642.8 251.5C685.7 258.7 728.3 259.3 771.2 256.7C814 254 857 248 878.5 245L900 242L900 601L878.5 601C857 601 814 601 771.2 601C728.3 601 685.7 601 642.8 601C600 601 557 601 514.2 601C471.3 601 428.7 601 385.8 601C343 601 300 601 257.2 601C214.3 601 171.7 601 128.8 601C86 601 43 601 21.5 601L0 601Z" fill="#cf3068"></path><path d="M0 285L21.5 288.5C43 292 86 299 128.8 303C171.7 307 214.3 308 257.2 308.7C300 309.3 343 309.7 385.8 304C428.7 298.3 471.3 286.7 514.2 281.8C557 277 600 279 642.8 282.5C685.7 286 728.3 291 771.2 294C814 297 857 298 878.5 298.5L900 299L900 601L878.5 601C857 601 814 601 771.2 601C728.3 601 685.7 601 642.8 601C600 601 557 601 514.2 601C471.3 601 428.7 601 385.8 601C343 601 300 601 257.2 601C214.3 601 171.7 601 128.8 601C86 601 43 601 21.5 601L0 601Z" fill="#d73b67"></path><path d="M0 325L21.5 322.7C43 320.3 86 315.7 128.8 315.2C171.7 314.7 214.3 318.3 257.2 326C300 333.7 343 345.3 385.8 345.3C428.7 345.3 471.3 333.7 514.2 327.5C557 321.3 600 320.7 642.8 319.2C685.7 317.7 728.3 315.3 771.2 321.2C814 327 857 341 878.5 348L900 355L900 601L878.5 601C857 601 814 601 771.2 601C728.3 601 685.7 601 642.8 601C600 601 557 601 514.2 601C471.3 601 428.7 601 385.8 601C343 601 300 601 257.2 601C214.3 601 171.7 601 128.8 601C86 601 43 601 21.5 601L0 601Z" fill="#df4667"></path><path d="M0 375L21.5 378C43 381 86 387 128.8 389.3C171.7 391.7 214.3 390.3 257.2 386.7C300 383 343 377 385.8 375.8C428.7 374.7 471.3 378.3 514.2 383.7C557 389 600 396 642.8 394.5C685.7 393 728.3 383 771.2 378.2C814 373.3 857 373.7 878.5 373.8L900 374L900 601L878.5 601C857 601 814 601 771.2 601C728.3 601 685.7 601 642.8 601C600 601 557 601 514.2 601C471.3 601 428.7 601 385.8 601C343 601 300 601 257.2 601C214.3 601 171.7 601 128.8 601C86 601 43 601 21.5 601L0 601Z" fill="#e75167"></path><path d="M0 421L21.5 423.3C43 425.7 86 430.3 128.8 433.5C171.7 436.7 214.3 438.3 257.2 437.7C300 437 343 434 385.8 434.2C428.7 434.3 471.3 437.7 514.2 438.3C557 439 600 437 642.8 438.8C685.7 440.7 728.3 446.3 771.2 448C814 449.7 857 447.3 878.5 446.2L900 445L900 601L878.5 601C857 601 814 601 771.2 601C728.3 601 685.7 601 642.8 601C600 601 557 601 514.2 601C471.3 601 428.7 601 385.8 601C343 601 300 601 257.2 601C214.3 601 171.7 601 128.8 601C86 601 43 601 21.5 601L0 601Z" fill="#ee5c67"></path><path d="M0 467L21.5 471.8C43 476.7 86 486.3 128.8 486.7C171.7 487 214.3 478 257.2 475.2C300 472.3 343 475.7 385.8 477.3C428.7 479 471.3 479 514.2 481.7C557 484.3 600 489.7 642.8 491C685.7 492.3 728.3 489.7 771.2 487.3C814 485 857 483 878.5 482L900 481L900 601L878.5 601C857 601 814 601 771.2 601C728.3 601 685.7 601 642.8 601C600 601 557 601 514.2 601C471.3 601 428.7 601 385.8 601C343 601 300 601 257.2 601C214.3 601 171.7 601 128.8 601C86 601 43 601 21.5 601L0 601Z" fill="#f46767"></path><path d="M0 535L21.5 532.3C43 529.7 86 524.3 128.8 522.7C171.7 521 214.3 523 257.2 527.2C300 531.3 343 537.7 385.8 537.7C428.7 537.7 471.3 531.3 514.2 527.5C557 523.7 600 522.3 642.8 522.3C685.7 522.3 728.3 523.7 771.2 527.5C814 531.3 857 537.7 878.5 540.8L900 544L900 601L878.5 601C857 601 814 601 771.2 601C728.3 601 685.7 601 642.8 601C600 601 557 601 514.2 601C471.3 601 428.7 601 385.8 601C343 601 300 601 257.2 601C214.3 601 171.7 601 128.8 601C86 601 43 601 21.5 601L0 601Z" fill="#fa7268"></path></svg>