<svg id="visual" viewBox="0 0 900 600" width="900" height="600" xmlns="http://www.w3.org/2000/svg" xmlns:xlink="http://www.w3.org/1999/xlink" version="1.1"><rect x="0" y="0" width="900" height="600" fill="#001220"></rect><path d="M0 213L21.5 208.5C43 204 86 195 128.8 193C171.7 191 214.3 196 257.2 193.8C300 191.7 343 182.3 385.8 181C428.7 179.7 471.3 186.3 514.2 191.3C557 196.3 600 199.7 642.8 200.8C685.7 202 728.3 201 771.2 197C814 193 857 186 878.5 182.5L900 179L900 601L878.5 601C857 601 814 601 771.2 601C728.3 601 685.7 601 642.8 601C600 601 557 601 514.2 601C471.3 601 428.7 601 385.8 601C343 601 300 601 257.2 601C214.3 601 171.7 601 128.8 601C86 601 43 601 21.5 601L0 601Z" fill="#c62368"></path><path d="M0 216L21.5 216.8C43 217.7 86 219.3 128.8 218.2C171.7 217 214.3 213 257.2 213.2C300 213.3 343 217.7 385.8 218.3C428.7 219 471.3 216 514.2 221.3C557 226.7 600 240.3 642.8 244.5C685.7 248.7 728.3 243.3 771.2 240.3C814 237.3 857 236.7 878.5 236.3L900 236L900 601L878.5 601C857 601 814 601 771.2 601C728.3 601 685.7 601 642.8 601C600 601 557 601 514.2 601C471.3 601 428.7 601 385.8 601C343 601 300 601 257.2 601C214.3 601 171.7 601 128.8 601C86 601 43 601 21.5 601L0 601Z" fill="#cf3068"></path><path d="M0 285L21.5 280.8C43 276.7 86 268.3 128.8 263.5C171.7 258.7 214.3 257.3 257.2 265.8C300 274.3 343 292.7 385.8 299C428.7 305.3 471.3 299.7 514.2 290.5C557 281.3 600 268.7 642.8 267.3C685.7 266 728.3 276 771.2 278.2C814 280.3 857 274.7 878.5 271.8L900 269L900 601L878.5 601C857 601 814 601 771.2 601C728.3 601 685.7 601 642.8 601C600 601 557 601 514.2 601C471.3 601 428.7 601 385.8 601C343 601 300 601 257.2 601C214.3 601 171.7 601 128.8 601C86 601 43 601 21.5 601L0 601Z" fill="#d73b67"></path><path d="M0 323L21.5 320.7C43 318.3 86 313.7 128.8 313C171.7 312.3 214.3 315.7 257.2 320.8C300 326 343 333 385.8 337C428.7 341 471.3 342 514.2 344C557 346 600 349 642.8 351.2C685.7 353.3 728.3 354.7 771.2 351C814 347.3 857 338.7 878.5 334.3L900 330L900 601L878.5 601C857 601 814 601 771.2 601C728.3 601 685.7 601 642.8 601C600 601 557 601 514.2 601C471.3 601 428.7 601 385.8 601C343 601 300 601 257.2 601C214.3 601 171.7 601 128.8 601C86 601 43 601 21.5 601L0 601Z" fill="#df4667"></path><path d="M0 370L21.5 373.8C43 377.7 86 385.3 128.8 387.7C171.7 390 214.3 387 257.2 384C300 381 343 378 385.8 376.5C428.7 375 471.3 375 514.2 372.5C557 370 600 365 642.8 367.7C685.7 370.3 728.3 380.7 771.2 384.7C814 388.7 857 386.3 878.5 385.2L900 384L900 601L878.5 601C857 601 814 601 771.2 601C728.3 601 685.7 601 642.8 601C600 601 557 601 514.2 601C471.3 601 428.7 601 385.8 601C343 601 300 601 257.2 601C214.3 601 171.7 601 128.8 601C86 601 43 601 21.5 601L0 601Z" fill="#e75167"></path><path d="M0 451L21.5 449.3C43 447.7 86 444.3 128.8 444C171.7 443.7 214.3 446.3 257.2 444.7C300 443 343 437 385.8 432.7C428.7 428.3 471.3 425.7 514.2 423.5C557 421.3 600 419.7 642.8 421.7C685.7 423.7 728.3 429.3 771.2 431.8C814 434.3 857 433.7 878.5 433.3L900 433L900 601L878.5 601C857 601 814 601 771.2 601C728.3 601 685.7 601 642.8 601C600 601 557 601 514.2 601C471.3 601 428.7 601 385.8 601C343 601 300 601 257.2 601C214.3 601 171.7 601 128.8 601C86 601 43 601 21.5 601L0 601Z" fill="#ee5c67"></path><path d="M0 483L21.5 481C43 479 86 475 128.8 474C171.7 473 214.3 475 257.2 475.3C300 475.7 343 474.3 385.8 476.2C428.7 478 471.3 483 514.2 481.8C557 480.7 600 473.3 642.8 470.7C685.7 468 728.3 470 771.2 472.2C814 474.3 857 476.7 878.5 477.8L900 479L900 601L878.5 601C857 601 814 601 771.2 601C728.3 601 685.7 601 642.8 601C600 601 557 601 514.2 601C471.3 601 428.7 601 385.8 601C343 601 300 601 257.2 601C214.3 601 171.7 601 128.8 601C86 601 43 601 21.5 601L0 601Z" fill="#f46767"></path><path d="M0 546L21.5 542C43 538 86 530 128.8 525.5C171.7 521 214.3 520 257.2 522.2C300 524.3 343 529.7 385.8 534C428.7 538.3 471.3 541.7 514.2 543.3C557 545 600 545 642.8 544.2C685.7 543.3 728.3 541.7 771.2 537.7C814 533.7 857 527.3 878.5 524.2L900 521L900 601L878.5 601C857 601 814 601 771.2 601C728.3 601 685.7 601 642.8 601C600 601 557 601 514.2 601C471.3 601 428.7 601 385.8 601C343 601 300 601 257.2 601C214.3 601 171.7 601 128.8 601C86 601 43 601 21.5 601L0 601Z" fill="#fa7268"></path></svg>